# MagicaVoxel @ Ephtracy

# group
o 

# material
mtllib Turret2Top.mtl
usemtl palette

# normals
vn -1 0 0
vn 1 0 0
vn 0 0 1
vn 0 0 -1
vn 0 -1 0
vn 0 1 0

# texcoords
vt 0.689453 0.5
vt 0.837891 0.5
vt 0.849609 0.5
vt 0.861328 0.5
vt 0.904297 0.5
vt 0.916016 0.5
vt 0.966797 0.5

# verts
v 0 0.5 0
v 0 0.5 -0.2
v 0 0.5 -0.6
v 0 0.5 -0.8
v 0 0.6 0
v 0 0.6 -0.1
v 0 0.6 -0.7
v 0 0.6 -0.8
v 0 0.7 -0.1
v 0 0.7 -0.2
v 0 0.7 -0.3
v 0 0.7 -0.5
v 0 0.7 -0.6
v 0 0.7 -0.7
v 0 0.8 0
v 0 0.8 -0.2
v 0 0.8 -0.3
v 0 0.8 -0.5
v 0 0.8 -0.6
v 0 0.8 -0.8
v 0 0.9 0
v 0 0.9 -0.2
v 0 0.9 -0.3
v 0 0.9 -0.5
v 0 0.9 -0.6
v 0 0.9 -0.8
v 0 1 -0.1
v 0 1 -0.2
v 0 1 -0.3
v 0 1 -0.5
v 0 1 -0.6
v 0 1 -0.7
v 0 1.1 0
v 0 1.1 -0.1
v 0 1.1 -0.7
v 0 1.1 -0.8
v 0 1.2 0
v 0 1.2 -0.2
v 0 1.2 -0.6
v 0 1.2 -0.8
v 0.1 1.2 -0.1
v 0.1 1.2 -0.2
v 0.1 1.2 -0.3
v 0.1 1.2 -0.5
v 0.1 1.2 -0.6
v 0.1 1.2 -0.7
v 0.1 1.3 -0.1
v 0.1 1.3 -0.3
v 0.1 1.3 -0.5
v 0.1 1.3 -0.7
v 0.2 0.4 -0.2
v 0.2 0.4 -0.3
v 0.2 0.4 -0.5
v 0.2 0.4 -0.6
v 0.2 0.5 -0.2
v 0.2 0.5 -0.3
v 0.2 0.5 -0.5
v 0.2 0.5 -0.6
v 0.2 0.6 0
v 0.2 0.6 -0.1
v 0.2 0.7 0
v 0.2 0.7 -0.1
v 0.2 0.8 0
v 0.2 0.8 -0.1
v 0.2 0.9 0
v 0.2 0.9 -0.1
v 0.2 1 0
v 0.2 1 -0.1
v 0.2 1.1 0
v 0.2 1.1 -0.1
v 0.3 0.7 0
v 0.3 0.7 -0.1
v 0.3 0.8 0
v 0.3 0.8 -0.1
v 0.3 0.9 0
v 0.3 0.9 -0.1
v 0.3 1 0
v 0.3 1 -0.1
v 0.5 0.6 0
v 0.5 0.6 -0.1
v 0.5 0.7 0
v 0.5 0.7 -0.1
v 0.5 0.8 0
v 0.5 0.8 -0.1
v 0.5 0.9 0
v 0.5 0.9 -0.1
v 0.5 1 0
v 0.5 1 -0.1
v 0.5 1.1 0
v 0.5 1.1 -0.1
v 0.6 0.7 0
v 0.6 0.7 -0.1
v 0.6 0.8 0
v 0.6 0.8 -0.1
v 0.6 0.9 0
v 0.6 0.9 -0.1
v 0.6 1 0
v 0.6 1 -0.1
v 0.7 0.6 0
v 0.7 0.6 -0.1
v 0.7 0.7 0
v 0.7 0.7 -0.1
v 0.7 0.8 0
v 0.7 0.8 -0.1
v 0.7 0.9 0
v 0.7 0.9 -0.1
v 0.7 1 0
v 0.7 1 -0.1
v 0.7 1.1 0
v 0.7 1.1 -0.1
v 0.1 0.6 0
v 0.1 0.6 -0.1
v 0.1 0.7 0
v 0.1 0.7 -0.1
v 0.1 0.8 0
v 0.1 0.8 -0.1
v 0.1 0.9 0
v 0.1 0.9 -0.1
v 0.1 1 0
v 0.1 1 -0.1
v 0.1 1.1 0
v 0.1 1.1 -0.1
v 0.2 0.7 0
v 0.2 0.7 -0.1
v 0.2 0.8 0
v 0.2 0.8 -0.1
v 0.2 0.9 0
v 0.2 0.9 -0.1
v 0.2 1 0
v 0.2 1 -0.1
v 0.3 0.6 0
v 0.3 0.6 -0.1
v 0.3 0.7 0
v 0.3 0.7 -0.1
v 0.3 0.8 0
v 0.3 0.8 -0.1
v 0.3 0.9 0
v 0.3 0.9 -0.1
v 0.3 1 0
v 0.3 1 -0.1
v 0.3 1.1 0
v 0.3 1.1 -0.1
v 0.5 0.7 0
v 0.5 0.7 -0.1
v 0.5 0.8 0
v 0.5 0.8 -0.1
v 0.5 0.9 0
v 0.5 0.9 -0.1
v 0.5 1 0
v 0.5 1 -0.1
v 0.6 0.4 -0.2
v 0.6 0.4 -0.3
v 0.6 0.4 -0.5
v 0.6 0.4 -0.6
v 0.6 0.5 -0.2
v 0.6 0.5 -0.3
v 0.6 0.5 -0.5
v 0.6 0.5 -0.6
v 0.6 0.6 0
v 0.6 0.6 -0.1
v 0.6 0.7 0
v 0.6 0.7 -0.1
v 0.6 0.8 0
v 0.6 0.8 -0.1
v 0.6 0.9 0
v 0.6 0.9 -0.1
v 0.6 1 0
v 0.6 1 -0.1
v 0.6 1.1 0
v 0.6 1.1 -0.1
v 0.7 1.2 -0.1
v 0.7 1.2 -0.2
v 0.7 1.2 -0.3
v 0.7 1.2 -0.5
v 0.7 1.2 -0.6
v 0.7 1.2 -0.7
v 0.7 1.3 -0.1
v 0.7 1.3 -0.3
v 0.7 1.3 -0.5
v 0.7 1.3 -0.7
v 0.8 0.5 0
v 0.8 0.5 -0.2
v 0.8 0.5 -0.6
v 0.8 0.5 -0.8
v 0.8 0.6 0
v 0.8 0.6 -0.1
v 0.8 0.6 -0.7
v 0.8 0.6 -0.8
v 0.8 0.7 -0.1
v 0.8 0.7 -0.2
v 0.8 0.7 -0.3
v 0.8 0.7 -0.5
v 0.8 0.7 -0.6
v 0.8 0.7 -0.7
v 0.8 0.8 0
v 0.8 0.8 -0.2
v 0.8 0.8 -0.3
v 0.8 0.8 -0.5
v 0.8 0.8 -0.6
v 0.8 0.8 -0.8
v 0.8 0.9 0
v 0.8 0.9 -0.2
v 0.8 0.9 -0.3
v 0.8 0.9 -0.5
v 0.8 0.9 -0.6
v 0.8 0.9 -0.8
v 0.8 1 -0.1
v 0.8 1 -0.2
v 0.8 1 -0.3
v 0.8 1 -0.5
v 0.8 1 -0.6
v 0.8 1 -0.7
v 0.8 1.1 0
v 0.8 1.1 -0.1
v 0.8 1.1 -0.7
v 0.8 1.1 -0.8
v 0.8 1.2 0
v 0.8 1.2 -0.2
v 0.8 1.2 -0.6
v 0.8 1.2 -0.8
v 0 0.5 0
v 0 0.6 0
v 0 0.8 0
v 0 0.9 0
v 0 1.1 0
v 0 1.2 0
v 0.1 0.6 0
v 0.1 0.7 0
v 0.1 0.8 0
v 0.1 0.9 0
v 0.1 1 0
v 0.1 1.1 0
v 0.2 0.5 0
v 0.2 0.6 0
v 0.2 0.7 0
v 0.2 0.8 0
v 0.2 0.9 0
v 0.2 1 0
v 0.2 1.1 0
v 0.2 1.2 0
v 0.3 0.6 0
v 0.3 0.7 0
v 0.3 0.8 0
v 0.3 0.9 0
v 0.3 1 0
v 0.3 1.1 0
v 0.5 0.6 0
v 0.5 0.7 0
v 0.5 0.8 0
v 0.5 0.9 0
v 0.5 1 0
v 0.5 1.1 0
v 0.6 0.5 0
v 0.6 0.6 0
v 0.6 0.7 0
v 0.6 0.8 0
v 0.6 0.9 0
v 0.6 1 0
v 0.6 1.1 0
v 0.6 1.2 0
v 0.7 0.6 0
v 0.7 0.7 0
v 0.7 0.8 0
v 0.7 0.9 0
v 0.7 1 0
v 0.7 1.1 0
v 0.8 0.5 0
v 0.8 0.6 0
v 0.8 0.8 0
v 0.8 0.9 0
v 0.8 1.1 0
v 0.8 1.2 0
v 0.1 0.6 -0.1
v 0.1 0.7 -0.1
v 0.1 0.8 -0.1
v 0.1 0.9 -0.1
v 0.1 1 -0.1
v 0.1 1.1 -0.1
v 0.1 1.2 -0.1
v 0.1 1.3 -0.1
v 0.2 0.6 -0.1
v 0.2 0.7 -0.1
v 0.2 0.8 -0.1
v 0.2 0.9 -0.1
v 0.2 1 -0.1
v 0.2 1.1 -0.1
v 0.2 1.2 -0.1
v 0.2 1.3 -0.1
v 0.3 0.6 -0.1
v 0.3 0.7 -0.1
v 0.3 0.8 -0.1
v 0.3 0.9 -0.1
v 0.3 1 -0.1
v 0.3 1.1 -0.1
v 0.3 1.2 -0.1
v 0.3 1.3 -0.1
v 0.5 0.6 -0.1
v 0.5 0.7 -0.1
v 0.5 0.8 -0.1
v 0.5 0.9 -0.1
v 0.5 1 -0.1
v 0.5 1.1 -0.1
v 0.5 1.2 -0.1
v 0.5 1.3 -0.1
v 0.6 0.6 -0.1
v 0.6 0.7 -0.1
v 0.6 0.8 -0.1
v 0.6 0.9 -0.1
v 0.6 1 -0.1
v 0.6 1.1 -0.1
v 0.6 1.2 -0.1
v 0.6 1.3 -0.1
v 0.7 0.6 -0.1
v 0.7 0.7 -0.1
v 0.7 0.8 -0.1
v 0.7 0.9 -0.1
v 0.7 1 -0.1
v 0.7 1.1 -0.1
v 0.7 1.2 -0.1
v 0.7 1.3 -0.1
v 0.2 0.4 -0.2
v 0.2 0.5 -0.2
v 0.3 0.4 -0.2
v 0.3 0.5 -0.2
v 0.5 0.4 -0.2
v 0.5 0.5 -0.2
v 0.6 0.4 -0.2
v 0.6 0.5 -0.2
v 0.2 0.4 -0.6
v 0.2 0.5 -0.6
v 0.3 0.4 -0.6
v 0.3 0.5 -0.6
v 0.5 0.4 -0.6
v 0.5 0.5 -0.6
v 0.6 0.4 -0.6
v 0.6 0.5 -0.6
v 0.1 1.2 -0.7
v 0.1 1.3 -0.7
v 0.2 1.2 -0.7
v 0.2 1.3 -0.7
v 0.3 1.2 -0.7
v 0.3 1.3 -0.7
v 0.5 1.2 -0.7
v 0.5 1.3 -0.7
v 0.6 1.2 -0.7
v 0.6 1.3 -0.7
v 0.7 1.2 -0.7
v 0.7 1.3 -0.7
v 0 0.5 -0.8
v 0 0.6 -0.8
v 0 0.8 -0.8
v 0 0.9 -0.8
v 0 1.1 -0.8
v 0 1.2 -0.8
v 0.1 0.6 -0.8
v 0.1 0.7 -0.8
v 0.1 0.8 -0.8
v 0.1 0.9 -0.8
v 0.1 1 -0.8
v 0.1 1.1 -0.8
v 0.2 0.5 -0.8
v 0.2 0.6 -0.8
v 0.2 0.7 -0.8
v 0.2 0.8 -0.8
v 0.2 0.9 -0.8
v 0.2 1 -0.8
v 0.2 1.1 -0.8
v 0.2 1.2 -0.8
v 0.3 0.7 -0.8
v 0.3 0.8 -0.8
v 0.3 0.9 -0.8
v 0.3 1 -0.8
v 0.5 0.7 -0.8
v 0.5 0.8 -0.8
v 0.5 0.9 -0.8
v 0.5 1 -0.8
v 0.6 0.5 -0.8
v 0.6 0.6 -0.8
v 0.6 0.7 -0.8
v 0.6 0.8 -0.8
v 0.6 0.9 -0.8
v 0.6 1 -0.8
v 0.6 1.1 -0.8
v 0.6 1.2 -0.8
v 0.7 0.6 -0.8
v 0.7 0.7 -0.8
v 0.7 0.8 -0.8
v 0.7 0.9 -0.8
v 0.7 1 -0.8
v 0.7 1.1 -0.8
v 0.8 0.5 -0.8
v 0.8 0.6 -0.8
v 0.8 0.8 -0.8
v 0.8 0.9 -0.8
v 0.8 1.1 -0.8
v 0.8 1.2 -0.8
v 0.2 0.4 -0.2
v 0.3 0.4 -0.2
v 0.5 0.4 -0.2
v 0.6 0.4 -0.2
v 0.2 0.4 -0.3
v 0.3 0.4 -0.3
v 0.5 0.4 -0.3
v 0.6 0.4 -0.3
v 0.2 0.4 -0.5
v 0.3 0.4 -0.5
v 0.5 0.4 -0.5
v 0.6 0.4 -0.5
v 0.2 0.4 -0.6
v 0.3 0.4 -0.6
v 0.5 0.4 -0.6
v 0.6 0.4 -0.6
v 0 0.5 0
v 0.2 0.5 0
v 0.6 0.5 0
v 0.8 0.5 0
v 0.2 0.5 -0.1
v 0.6 0.5 -0.1
v 0 0.5 -0.2
v 0.1 0.5 -0.2
v 0.2 0.5 -0.2
v 0.3 0.5 -0.2
v 0.5 0.5 -0.2
v 0.6 0.5 -0.2
v 0.7 0.5 -0.2
v 0.8 0.5 -0.2
v 0.2 0.5 -0.3
v 0.6 0.5 -0.3
v 0.2 0.5 -0.5
v 0.6 0.5 -0.5
v 0 0.5 -0.6
v 0.1 0.5 -0.6
v 0.2 0.5 -0.6
v 0.3 0.5 -0.6
v 0.5 0.5 -0.6
v 0.6 0.5 -0.6
v 0.7 0.5 -0.6
v 0.8 0.5 -0.6
v 0.2 0.5 -0.7
v 0.6 0.5 -0.7
v 0 0.5 -0.8
v 0.2 0.5 -0.8
v 0.6 0.5 -0.8
v 0.8 0.5 -0.8
v 0.1 0.7 0
v 0.2 0.7 0
v 0.3 0.7 0
v 0.5 0.7 0
v 0.6 0.7 0
v 0.7 0.7 0
v 0.1 0.7 -0.1
v 0.2 0.7 -0.1
v 0.3 0.7 -0.1
v 0.5 0.7 -0.1
v 0.6 0.7 -0.1
v 0.7 0.7 -0.1
v 0.2 0.8 0
v 0.3 0.8 0
v 0.5 0.8 0
v 0.6 0.8 0
v 0.2 0.8 -0.1
v 0.3 0.8 -0.1
v 0.5 0.8 -0.1
v 0.6 0.8 -0.1
v 0.1 0.9 0
v 0.2 0.9 0
v 0.3 0.9 0
v 0.5 0.9 0
v 0.6 0.9 0
v 0.7 0.9 0
v 0.1 0.9 -0.1
v 0.2 0.9 -0.1
v 0.3 0.9 -0.1
v 0.5 0.9 -0.1
v 0.6 0.9 -0.1
v 0.7 0.9 -0.1
v 0.2 1 0
v 0.3 1 0
v 0.5 1 0
v 0.6 1 0
v 0.2 1 -0.1
v 0.3 1 -0.1
v 0.5 1 -0.1
v 0.6 1 -0.1
v 0.1 1.1 0
v 0.2 1.1 0
v 0.3 1.1 0
v 0.5 1.1 0
v 0.6 1.1 0
v 0.7 1.1 0
v 0.1 1.1 -0.1
v 0.2 1.1 -0.1
v 0.3 1.1 -0.1
v 0.5 1.1 -0.1
v 0.6 1.1 -0.1
v 0.7 1.1 -0.1
v 0.1 0.6 0
v 0.2 0.6 0
v 0.3 0.6 0
v 0.5 0.6 0
v 0.6 0.6 0
v 0.7 0.6 0
v 0.1 0.6 -0.1
v 0.2 0.6 -0.1
v 0.3 0.6 -0.1
v 0.5 0.6 -0.1
v 0.6 0.6 -0.1
v 0.7 0.6 -0.1
v 0.2 0.7 0
v 0.3 0.7 0
v 0.5 0.7 0
v 0.6 0.7 0
v 0.2 0.7 -0.1
v 0.3 0.7 -0.1
v 0.5 0.7 -0.1
v 0.6 0.7 -0.1
v 0.1 0.8 0
v 0.2 0.8 0
v 0.3 0.8 0
v 0.5 0.8 0
v 0.6 0.8 0
v 0.7 0.8 0
v 0.1 0.8 -0.1
v 0.2 0.8 -0.1
v 0.3 0.8 -0.1
v 0.5 0.8 -0.1
v 0.6 0.8 -0.1
v 0.7 0.8 -0.1
v 0.2 0.9 0
v 0.3 0.9 0
v 0.5 0.9 0
v 0.6 0.9 0
v 0.2 0.9 -0.1
v 0.3 0.9 -0.1
v 0.5 0.9 -0.1
v 0.6 0.9 -0.1
v 0.1 1 0
v 0.2 1 0
v 0.3 1 0
v 0.5 1 0
v 0.6 1 0
v 0.7 1 0
v 0.1 1 -0.1
v 0.2 1 -0.1
v 0.3 1 -0.1
v 0.5 1 -0.1
v 0.6 1 -0.1
v 0.7 1 -0.1
v 0 1.2 0
v 0.2 1.2 0
v 0.6 1.2 0
v 0.8 1.2 0
v 0.1 1.2 -0.1
v 0.2 1.2 -0.1
v 0.3 1.2 -0.1
v 0.5 1.2 -0.1
v 0.6 1.2 -0.1
v 0.7 1.2 -0.1
v 0 1.2 -0.2
v 0.1 1.2 -0.2
v 0.7 1.2 -0.2
v 0.8 1.2 -0.2
v 0.1 1.2 -0.3
v 0.7 1.2 -0.3
v 0.1 1.2 -0.5
v 0.7 1.2 -0.5
v 0 1.2 -0.6
v 0.1 1.2 -0.6
v 0.7 1.2 -0.6
v 0.8 1.2 -0.6
v 0.1 1.2 -0.7
v 0.2 1.2 -0.7
v 0.3 1.2 -0.7
v 0.5 1.2 -0.7
v 0.6 1.2 -0.7
v 0.7 1.2 -0.7
v 0 1.2 -0.8
v 0.2 1.2 -0.8
v 0.6 1.2 -0.8
v 0.8 1.2 -0.8
v 0.1 1.3 -0.1
v 0.2 1.3 -0.1
v 0.3 1.3 -0.1
v 0.5 1.3 -0.1
v 0.6 1.3 -0.1
v 0.7 1.3 -0.1
v 0.1 1.3 -0.3
v 0.2 1.3 -0.3
v 0.3 1.3 -0.3
v 0.5 1.3 -0.3
v 0.6 1.3 -0.3
v 0.7 1.3 -0.3
v 0.1 1.3 -0.5
v 0.2 1.3 -0.5
v 0.3 1.3 -0.5
v 0.5 1.3 -0.5
v 0.6 1.3 -0.5
v 0.7 1.3 -0.5
v 0.1 1.3 -0.7
v 0.2 1.3 -0.7
v 0.3 1.3 -0.7
v 0.5 1.3 -0.7
v 0.6 1.3 -0.7
v 0.7 1.3 -0.7

# faces
f 5/7/1 2/7/1 1/7/1
f 6/7/1 2/7/1 5/7/1
f 7/7/1 4/7/1 3/7/1
f 8/7/1 4/7/1 7/7/1
f 9/7/1 2/7/1 6/7/1
f 9/3/1 6/3/1 5/3/1
f 10/3/1 3/3/1 2/3/1
f 10/7/1 2/7/1 9/7/1
f 11/3/1 3/3/1 10/3/1
f 12/3/1 3/3/1 11/3/1
f 13/7/1 7/7/1 3/7/1
f 13/3/1 3/3/1 12/3/1
f 14/3/1 8/3/1 7/3/1
f 14/7/1 7/7/1 13/7/1
f 15/3/1 9/3/1 5/3/1
f 15/3/1 10/3/1 9/3/1
f 16/7/1 11/7/1 10/7/1
f 16/3/1 10/3/1 15/3/1
f 17/3/1 12/3/1 11/3/1
f 17/7/1 11/7/1 16/7/1
f 18/7/1 13/7/1 12/7/1
f 18/3/1 12/3/1 17/3/1
f 19/3/1 14/3/1 13/3/1
f 19/7/1 13/7/1 18/7/1
f 20/3/1 8/3/1 14/3/1
f 20/3/1 14/3/1 19/3/1
f 21/5/1 17/5/1 16/5/1
f 21/5/1 16/5/1 15/5/1
f 22/5/1 17/5/1 21/5/1
f 23/7/1 18/7/1 17/7/1
f 23/5/1 17/5/1 22/5/1
f 24/5/1 19/5/1 18/5/1
f 24/7/1 18/7/1 23/7/1
f 24/5/1 20/5/1 19/5/1
f 25/5/1 20/5/1 24/5/1
f 26/5/1 20/5/1 25/5/1
f 27/3/1 22/3/1 21/3/1
f 28/7/1 23/7/1 22/7/1
f 28/3/1 22/3/1 27/3/1
f 29/3/1 24/3/1 23/3/1
f 29/7/1 23/7/1 28/7/1
f 30/7/1 25/7/1 24/7/1
f 30/3/1 24/3/1 29/3/1
f 31/3/1 26/3/1 25/3/1
f 31/7/1 25/7/1 30/7/1
f 32/3/1 26/3/1 31/3/1
f 33/3/1 27/3/1 21/3/1
f 34/7/1 28/7/1 27/7/1
f 34/3/1 27/3/1 33/3/1
f 35/3/1 26/3/1 32/3/1
f 35/7/1 32/7/1 31/7/1
f 36/3/1 26/3/1 35/3/1
f 37/7/1 34/7/1 33/7/1
f 38/7/1 28/7/1 34/7/1
f 38/7/1 34/7/1 37/7/1
f 38/3/1 29/3/1 28/3/1
f 38/3/1 30/3/1 29/3/1
f 38/3/1 31/3/1 30/3/1
f 39/7/1 36/7/1 35/7/1
f 39/3/1 31/3/1 38/3/1
f 39/7/1 35/7/1 31/7/1
f 40/7/1 36/7/1 39/7/1
f 47/7/1 42/7/1 41/7/1
f 47/7/1 43/7/1 42/7/1
f 48/4/1 44/4/1 43/4/1
f 48/7/1 43/7/1 47/7/1
f 49/7/1 46/7/1 45/7/1
f 49/4/1 44/4/1 48/4/1
f 49/7/1 45/7/1 44/7/1
f 50/7/1 46/7/1 49/7/1
f 55/7/1 52/7/1 51/7/1
f 56/3/1 53/3/1 52/3/1
f 56/7/1 52/7/1 55/7/1
f 57/7/1 54/7/1 53/7/1
f 57/3/1 53/3/1 56/3/1
f 58/7/1 54/7/1 57/7/1
f 61/2/1 60/2/1 59/2/1
f 62/2/1 60/2/1 61/2/1
f 65/2/1 64/2/1 63/2/1
f 66/2/1 64/2/1 65/2/1
f 69/2/1 68/2/1 67/2/1
f 70/2/1 68/2/1 69/2/1
f 73/2/1 72/2/1 71/2/1
f 74/2/1 72/2/1 73/2/1
f 77/2/1 76/2/1 75/2/1
f 78/2/1 76/2/1 77/2/1
f 81/2/1 80/2/1 79/2/1
f 82/2/1 80/2/1 81/2/1
f 85/2/1 84/2/1 83/2/1
f 86/2/1 84/2/1 85/2/1
f 89/2/1 88/2/1 87/2/1
f 90/2/1 88/2/1 89/2/1
f 93/2/1 92/2/1 91/2/1
f 94/2/1 92/2/1 93/2/1
f 97/2/1 96/2/1 95/2/1
f 98/2/1 96/2/1 97/2/1
f 101/3/1 100/3/1 99/3/1
f 102/3/1 100/3/1 101/3/1
f 105/5/1 104/5/1 103/5/1
f 106/5/1 104/5/1 105/5/1
f 109/3/1 108/3/1 107/3/1
f 110/3/1 108/3/1 109/3/1
f 111/3/2 112/3/2 113/3/2
f 113/3/2 112/3/2 114/3/2
f 115/5/2 116/5/2 117/5/2
f 117/5/2 116/5/2 118/5/2
f 119/3/2 120/3/2 121/3/2
f 121/3/2 120/3/2 122/3/2
f 123/2/2 124/2/2 125/2/2
f 125/2/2 124/2/2 126/2/2
f 127/2/2 128/2/2 129/2/2
f 129/2/2 128/2/2 130/2/2
f 131/2/2 132/2/2 133/2/2
f 133/2/2 132/2/2 134/2/2
f 135/2/2 136/2/2 137/2/2
f 137/2/2 136/2/2 138/2/2
f 139/2/2 140/2/2 141/2/2
f 141/2/2 140/2/2 142/2/2
f 143/2/2 144/2/2 145/2/2
f 145/2/2 144/2/2 146/2/2
f 147/2/2 148/2/2 149/2/2
f 149/2/2 148/2/2 150/2/2
f 151/7/2 152/7/2 155/7/2
f 152/3/2 153/3/2 156/3/2
f 155/7/2 152/7/2 156/7/2
f 153/7/2 154/7/2 157/7/2
f 156/3/2 153/3/2 157/3/2
f 157/7/2 154/7/2 158/7/2
f 159/2/2 160/2/2 161/2/2
f 161/2/2 160/2/2 162/2/2
f 163/2/2 164/2/2 165/2/2
f 165/2/2 164/2/2 166/2/2
f 167/2/2 168/2/2 169/2/2
f 169/2/2 168/2/2 170/2/2
f 171/7/2 172/7/2 177/7/2
f 172/7/2 173/7/2 177/7/2
f 173/4/2 174/4/2 178/4/2
f 177/7/2 173/7/2 178/7/2
f 175/7/2 176/7/2 179/7/2
f 178/4/2 174/4/2 179/4/2
f 174/7/2 175/7/2 179/7/2
f 179/7/2 176/7/2 180/7/2
f 181/7/2 182/7/2 185/7/2
f 185/7/2 182/7/2 186/7/2
f 183/7/2 184/7/2 187/7/2
f 187/7/2 184/7/2 188/7/2
f 186/7/2 182/7/2 189/7/2
f 185/3/2 186/3/2 189/3/2
f 182/3/2 183/3/2 190/3/2
f 189/7/2 182/7/2 190/7/2
f 190/3/2 183/3/2 191/3/2
f 191/3/2 183/3/2 192/3/2
f 183/7/2 187/7/2 193/7/2
f 192/3/2 183/3/2 193/3/2
f 187/3/2 188/3/2 194/3/2
f 193/7/2 187/7/2 194/7/2
f 185/3/2 189/3/2 195/3/2
f 189/3/2 190/3/2 195/3/2
f 190/7/2 191/7/2 196/7/2
f 195/3/2 190/3/2 196/3/2
f 191/3/2 192/3/2 197/3/2
f 196/7/2 191/7/2 197/7/2
f 192/7/2 193/7/2 198/7/2
f 197/3/2 192/3/2 198/3/2
f 193/3/2 194/3/2 199/3/2
f 198/7/2 193/7/2 199/7/2
f 194/3/2 188/3/2 200/3/2
f 199/3/2 194/3/2 200/3/2
f 196/5/2 197/5/2 201/5/2
f 195/5/2 196/5/2 201/5/2
f 201/5/2 197/5/2 202/5/2
f 197/7/2 198/7/2 203/7/2
f 202/5/2 197/5/2 203/5/2
f 198/5/2 199/5/2 204/5/2
f 203/7/2 198/7/2 204/7/2
f 199/5/2 200/5/2 204/5/2
f 204/5/2 200/5/2 205/5/2
f 205/5/2 200/5/2 206/5/2
f 201/3/2 202/3/2 207/3/2
f 202/7/2 203/7/2 208/7/2
f 207/3/2 202/3/2 208/3/2
f 203/3/2 204/3/2 209/3/2
f 208/7/2 203/7/2 209/7/2
f 204/7/2 205/7/2 210/7/2
f 209/3/2 204/3/2 210/3/2
f 205/3/2 206/3/2 211/3/2
f 210/7/2 205/7/2 211/7/2
f 211/3/2 206/3/2 212/3/2
f 201/3/2 207/3/2 213/3/2
f 207/7/2 208/7/2 214/7/2
f 213/3/2 207/3/2 214/3/2
f 212/3/2 206/3/2 215/3/2
f 211/7/2 212/7/2 215/7/2
f 215/3/2 206/3/2 216/3/2
f 213/7/2 214/7/2 217/7/2
f 214/7/2 208/7/2 218/7/2
f 217/7/2 214/7/2 218/7/2
f 208/3/2 209/3/2 218/3/2
f 209/3/2 210/3/2 218/3/2
f 210/3/2 211/3/2 218/3/2
f 215/7/2 216/7/2 219/7/2
f 218/3/2 211/3/2 219/3/2
f 211/7/2 215/7/2 219/7/2
f 219/7/2 216/7/2 220/7/2
f 227/7/3 222/7/3 221/7/3
f 227/3/3 223/3/3 222/3/3
f 228/3/3 223/3/3 227/3/3
f 229/5/3 224/5/3 223/5/3
f 229/3/3 223/3/3 228/3/3
f 230/3/3 225/3/3 224/3/3
f 230/5/3 224/5/3 229/5/3
f 231/3/3 225/3/3 230/3/3
f 232/7/3 226/7/3 225/7/3
f 232/3/3 225/3/3 231/3/3
f 233/7/3 227/7/3 221/7/3
f 234/7/3 227/7/3 233/7/3
f 235/2/3 229/2/3 228/2/3
f 236/2/3 229/2/3 235/2/3
f 237/2/3 231/2/3 230/2/3
f 238/2/3 231/2/3 237/2/3
f 239/7/3 226/7/3 232/7/3
f 240/7/3 226/7/3 239/7/3
f 241/3/3 234/3/3 233/3/3
f 241/2/3 235/2/3 234/2/3
f 242/2/3 235/2/3 241/2/3
f 243/2/3 237/2/3 236/2/3
f 244/2/3 237/2/3 243/2/3
f 245/2/3 239/2/3 238/2/3
f 246/3/3 240/3/3 239/3/3
f 246/2/3 239/2/3 245/2/3
f 247/3/3 241/3/3 233/3/3
f 248/2/3 243/2/3 242/2/3
f 249/2/3 243/2/3 248/2/3
f 250/2/3 245/2/3 244/2/3
f 251/2/3 245/2/3 250/2/3
f 252/3/3 240/3/3 246/3/3
f 253/3/3 247/3/3 233/3/3
f 254/2/3 248/2/3 247/2/3
f 254/3/3 247/3/3 253/3/3
f 255/2/3 248/2/3 254/2/3
f 256/2/3 250/2/3 249/2/3
f 257/2/3 250/2/3 256/2/3
f 258/2/3 252/2/3 251/2/3
f 259/3/3 240/3/3 252/3/3
f 259/2/3 252/2/3 258/2/3
f 260/3/3 240/3/3 259/3/3
f 261/7/3 254/7/3 253/7/3
f 262/2/3 256/2/3 255/2/3
f 263/2/3 256/2/3 262/2/3
f 264/2/3 258/2/3 257/2/3
f 265/2/3 258/2/3 264/2/3
f 266/7/3 260/7/3 259/7/3
f 267/7/3 261/7/3 253/7/3
f 268/3/3 263/3/3 262/3/3
f 268/7/3 261/7/3 267/7/3
f 268/3/3 262/3/3 261/3/3
f 269/5/3 264/5/3 263/5/3
f 269/3/3 263/3/3 268/3/3
f 270/3/3 265/3/3 264/3/3
f 270/5/3 264/5/3 269/5/3
f 270/3/3 266/3/3 265/3/3
f 271/7/3 260/7/3 266/7/3
f 271/3/3 266/3/3 270/3/3
f 272/7/3 260/7/3 271/7/3
f 281/6/3 274/6/3 273/6/3
f 282/6/3 274/6/3 281/6/3
f 283/6/3 276/6/3 275/6/3
f 284/6/3 276/6/3 283/6/3
f 285/6/3 278/6/3 277/6/3
f 286/6/3 278/6/3 285/6/3
f 287/7/3 280/7/3 279/7/3
f 288/7/3 280/7/3 287/7/3
f 290/6/3 283/6/3 282/6/3
f 291/6/3 283/6/3 290/6/3
f 292/6/3 285/6/3 284/6/3
f 293/6/3 285/6/3 292/6/3
f 295/4/3 288/4/3 287/4/3
f 296/4/3 288/4/3 295/4/3
f 297/6/3 290/6/3 289/6/3
f 298/6/3 290/6/3 297/6/3
f 299/6/3 292/6/3 291/6/3
f 300/6/3 292/6/3 299/6/3
f 301/6/3 294/6/3 293/6/3
f 302/6/3 294/6/3 301/6/3
f 303/7/3 296/7/3 295/7/3
f 304/7/3 296/7/3 303/7/3
f 306/6/3 299/6/3 298/6/3
f 307/6/3 299/6/3 306/6/3
f 308/6/3 301/6/3 300/6/3
f 309/6/3 301/6/3 308/6/3
f 311/4/3 304/4/3 303/4/3
f 312/4/3 304/4/3 311/4/3
f 313/6/3 306/6/3 305/6/3
f 314/6/3 306/6/3 313/6/3
f 315/6/3 308/6/3 307/6/3
f 316/6/3 308/6/3 315/6/3
f 317/6/3 310/6/3 309/6/3
f 318/6/3 310/6/3 317/6/3
f 319/7/3 312/7/3 311/7/3
f 320/7/3 312/7/3 319/7/3
f 323/7/3 322/7/3 321/7/3
f 324/7/3 322/7/3 323/7/3
f 325/3/3 324/3/3 323/3/3
f 326/3/3 324/3/3 325/3/3
f 327/7/3 326/7/3 325/7/3
f 328/7/3 326/7/3 327/7/3
f 329/7/4 330/7/4 331/7/4
f 331/7/4 330/7/4 332/7/4
f 331/3/4 332/3/4 333/3/4
f 333/3/4 332/3/4 334/3/4
f 333/7/4 334/7/4 335/7/4
f 335/7/4 334/7/4 336/7/4
f 337/7/4 338/7/4 339/7/4
f 339/7/4 338/7/4 340/7/4
f 339/4/4 340/4/4 341/4/4
f 341/4/4 340/4/4 342/4/4
f 341/7/4 342/7/4 343/7/4
f 343/7/4 342/7/4 344/7/4
f 343/4/4 344/4/4 345/4/4
f 345/4/4 344/4/4 346/4/4
f 345/7/4 346/7/4 347/7/4
f 347/7/4 346/7/4 348/7/4
f 349/7/4 350/7/4 355/7/4
f 350/3/4 351/3/4 355/3/4
f 355/3/4 351/3/4 356/3/4
f 351/5/4 352/5/4 357/5/4
f 356/3/4 351/3/4 357/3/4
f 352/3/4 353/3/4 358/3/4
f 357/5/4 352/5/4 358/5/4
f 358/3/4 353/3/4 359/3/4
f 353/7/4 354/7/4 360/7/4
f 359/3/4 353/3/4 360/3/4
f 355/7/4 356/7/4 361/7/4
f 349/7/4 355/7/4 361/7/4
f 361/7/4 356/7/4 362/7/4
f 356/1/4 357/1/4 363/1/4
f 362/7/4 356/7/4 363/7/4
f 357/5/4 358/5/4 364/5/4
f 363/1/4 357/1/4 364/1/4
f 358/1/4 359/1/4 365/1/4
f 364/5/4 358/5/4 365/5/4
f 359/7/4 360/7/4 366/7/4
f 365/1/4 359/1/4 366/1/4
f 360/7/4 354/7/4 367/7/4
f 366/7/4 360/7/4 367/7/4
f 367/7/4 354/7/4 368/7/4
f 363/7/4 364/7/4 369/7/4
f 362/1/4 363/1/4 369/1/4
f 364/5/4 365/5/4 370/5/4
f 369/7/4 364/7/4 370/7/4
f 365/7/4 366/7/4 371/7/4
f 370/5/4 365/5/4 371/5/4
f 366/1/4 367/1/4 372/1/4
f 371/7/4 366/7/4 372/7/4
f 369/1/4 370/1/4 373/1/4
f 362/1/4 369/1/4 373/1/4
f 370/7/4 371/7/4 374/7/4
f 373/1/4 370/1/4 374/1/4
f 371/1/4 372/1/4 375/1/4
f 374/7/4 371/7/4 375/7/4
f 372/1/4 367/1/4 376/1/4
f 375/1/4 372/1/4 376/1/4
f 361/3/4 362/3/4 377/3/4
f 362/1/4 373/1/4 378/1/4
f 377/3/4 362/3/4 378/3/4
f 373/7/4 374/7/4 379/7/4
f 378/1/4 373/1/4 379/1/4
f 374/5/4 375/5/4 380/5/4
f 379/7/4 374/7/4 380/7/4
f 375/7/4 376/7/4 381/7/4
f 380/5/4 375/5/4 381/5/4
f 376/1/4 367/1/4 382/1/4
f 381/7/4 376/7/4 382/7/4
f 367/3/4 368/3/4 383/3/4
f 382/1/4 367/1/4 383/1/4
f 383/3/4 368/3/4 384/3/4
f 378/7/4 379/7/4 385/7/4
f 377/7/4 378/7/4 385/7/4
f 379/1/4 380/1/4 386/1/4
f 385/7/4 379/7/4 386/7/4
f 380/5/4 381/5/4 387/5/4
f 386/1/4 380/1/4 387/1/4
f 381/1/4 382/1/4 388/1/4
f 387/5/4 381/5/4 388/5/4
f 383/7/4 384/7/4 389/7/4
f 388/1/4 382/1/4 389/1/4
f 382/7/4 383/7/4 389/7/4
f 389/7/4 384/7/4 390/7/4
f 377/7/4 385/7/4 391/7/4
f 385/3/4 386/3/4 392/3/4
f 391/7/4 385/7/4 392/7/4
f 386/3/4 387/3/4 392/3/4
f 387/5/4 388/5/4 393/5/4
f 392/3/4 387/3/4 393/3/4
f 389/3/4 390/3/4 394/3/4
f 393/5/4 388/5/4 394/5/4
f 388/3/4 389/3/4 394/3/4
f 390/7/4 384/7/4 395/7/4
f 394/3/4 390/3/4 395/3/4
f 395/7/4 384/7/4 396/7/4
f 401/7/5 398/7/5 397/7/5
f 402/3/5 399/3/5 398/3/5
f 402/7/5 398/7/5 401/7/5
f 403/7/5 400/7/5 399/7/5
f 403/3/5 399/3/5 402/3/5
f 404/7/5 400/7/5 403/7/5
f 405/3/5 402/3/5 401/3/5
f 406/1/5 403/1/5 402/1/5
f 406/3/5 402/3/5 405/3/5
f 407/3/5 404/3/5 403/3/5
f 407/1/5 403/1/5 406/1/5
f 408/3/5 404/3/5 407/3/5
f 409/7/5 406/7/5 405/7/5
f 410/3/5 407/3/5 406/3/5
f 410/7/5 406/7/5 409/7/5
f 411/7/5 408/7/5 407/7/5
f 411/3/5 407/3/5 410/3/5
f 412/7/5 408/7/5 411/7/5
f 417/7/5 414/7/5 413/7/5
f 417/3/5 415/3/5 414/3/5
f 418/7/5 416/7/5 415/7/5
f 418/3/5 415/3/5 417/3/5
f 419/7/5 417/7/5 413/7/5
f 420/7/5 417/7/5 419/7/5
f 421/1/5 418/1/5 417/1/5
f 421/7/5 417/7/5 420/7/5
f 422/1/5 418/1/5 421/1/5
f 423/1/5 418/1/5 422/1/5
f 424/7/5 416/7/5 418/7/5
f 424/1/5 418/1/5 423/1/5
f 425/7/5 416/7/5 424/7/5
f 426/7/5 416/7/5 425/7/5
f 427/1/5 421/1/5 420/1/5
f 428/1/5 425/1/5 424/1/5
f 429/1/5 427/1/5 420/1/5
f 430/1/5 425/1/5 428/1/5
f 431/3/5 420/3/5 419/3/5
f 432/1/5 429/1/5 420/1/5
f 432/3/5 420/3/5 431/3/5
f 433/1/5 429/1/5 432/1/5
f 436/1/5 425/1/5 430/1/5
f 437/3/5 426/3/5 425/3/5
f 437/1/5 425/1/5 436/1/5
f 438/3/5 426/3/5 437/3/5
f 439/1/5 435/1/5 434/1/5
f 439/1/5 436/1/5 435/1/5
f 439/7/5 432/7/5 431/7/5
f 439/7/5 433/7/5 432/7/5
f 439/1/5 434/1/5 433/1/5
f 440/7/5 438/7/5 437/7/5
f 440/1/5 436/1/5 439/1/5
f 440/7/5 437/7/5 436/7/5
f 441/7/5 439/7/5 431/7/5
f 442/3/5 440/3/5 439/3/5
f 442/7/5 439/7/5 441/7/5
f 443/7/5 438/7/5 440/7/5
f 443/3/5 440/3/5 442/3/5
f 444/7/5 438/7/5 443/7/5
f 451/2/5 446/2/5 445/2/5
f 452/2/5 446/2/5 451/2/5
f 453/2/5 448/2/5 447/2/5
f 454/2/5 448/2/5 453/2/5
f 455/2/5 450/2/5 449/2/5
f 456/2/5 450/2/5 455/2/5
f 461/2/5 458/2/5 457/2/5
f 462/2/5 458/2/5 461/2/5
f 463/2/5 460/2/5 459/2/5
f 464/2/5 460/2/5 463/2/5
f 471/2/5 466/2/5 465/2/5
f 472/2/5 466/2/5 471/2/5
f 473/2/5 468/2/5 467/2/5
f 474/2/5 468/2/5 473/2/5
f 475/2/5 470/2/5 469/2/5
f 476/2/5 470/2/5 475/2/5
f 481/2/5 478/2/5 477/2/5
f 482/2/5 478/2/5 481/2/5
f 483/2/5 480/2/5 479/2/5
f 484/2/5 480/2/5 483/2/5
f 491/7/5 486/7/5 485/7/5
f 492/7/5 486/7/5 491/7/5
f 493/3/5 488/3/5 487/3/5
f 494/3/5 488/3/5 493/3/5
f 495/7/5 490/7/5 489/7/5
f 496/7/5 490/7/5 495/7/5
f 497/7/6 498/7/6 503/7/6
f 503/7/6 498/7/6 504/7/6
f 499/3/6 500/3/6 505/3/6
f 505/3/6 500/3/6 506/3/6
f 501/7/6 502/7/6 507/7/6
f 507/7/6 502/7/6 508/7/6
f 509/2/6 510/2/6 513/2/6
f 513/2/6 510/2/6 514/2/6
f 511/2/6 512/2/6 515/2/6
f 515/2/6 512/2/6 516/2/6
f 517/2/6 518/2/6 523/2/6
f 523/2/6 518/2/6 524/2/6
f 519/2/6 520/2/6 525/2/6
f 525/2/6 520/2/6 526/2/6
f 521/2/6 522/2/6 527/2/6
f 527/2/6 522/2/6 528/2/6
f 529/2/6 530/2/6 533/2/6
f 533/2/6 530/2/6 534/2/6
f 531/2/6 532/2/6 535/2/6
f 535/2/6 532/2/6 536/2/6
f 537/2/6 538/2/6 543/2/6
f 543/2/6 538/2/6 544/2/6
f 539/2/6 540/2/6 545/2/6
f 545/2/6 540/2/6 546/2/6
f 541/2/6 542/2/6 547/2/6
f 547/2/6 542/2/6 548/2/6
f 549/7/6 550/7/6 553/7/6
f 550/3/6 551/3/6 554/3/6
f 553/7/6 550/7/6 554/7/6
f 554/3/6 551/3/6 555/3/6
f 555/3/6 551/3/6 556/3/6
f 551/7/6 552/7/6 557/7/6
f 556/3/6 551/3/6 557/3/6
f 557/7/6 552/7/6 558/7/6
f 549/7/6 553/7/6 559/7/6
f 559/7/6 553/7/6 560/7/6
f 558/7/6 552/7/6 561/7/6
f 561/7/6 552/7/6 562/7/6
f 559/3/6 560/3/6 563/3/6
f 561/3/6 562/3/6 564/3/6
f 559/3/6 563/3/6 565/3/6
f 564/3/6 562/3/6 566/3/6
f 559/3/6 565/3/6 567/3/6
f 567/3/6 565/3/6 568/3/6
f 566/3/6 562/3/6 569/3/6
f 569/3/6 562/3/6 570/3/6
f 567/7/6 568/7/6 571/7/6
f 569/7/6 570/7/6 576/7/6
f 567/7/6 571/7/6 577/7/6
f 571/7/6 572/7/6 577/7/6
f 574/3/6 575/3/6 578/3/6
f 577/7/6 572/7/6 578/7/6
f 572/3/6 573/3/6 578/3/6
f 573/3/6 574/3/6 578/3/6
f 575/7/6 576/7/6 579/7/6
f 578/3/6 575/3/6 579/3/6
f 576/7/6 570/7/6 580/7/6
f 579/7/6 576/7/6 580/7/6
f 581/7/6 582/7/6 587/7/6
f 582/4/6 583/4/6 588/4/6
f 587/7/6 582/7/6 588/7/6
f 583/7/6 584/7/6 589/7/6
f 588/4/6 583/4/6 589/4/6
f 584/4/6 585/4/6 590/4/6
f 589/7/6 584/7/6 590/7/6
f 585/7/6 586/7/6 591/7/6
f 590/4/6 585/4/6 591/4/6
f 591/7/6 586/7/6 592/7/6
f 587/4/6 588/4/6 593/4/6
f 589/7/6 590/7/6 594/7/6
f 593/4/6 588/4/6 594/4/6
f 588/7/6 589/7/6 594/7/6
f 590/7/6 591/7/6 594/7/6
f 594/7/6 591/7/6 595/7/6
f 595/7/6 591/7/6 596/7/6
f 591/4/6 592/4/6 597/4/6
f 596/7/6 591/7/6 597/7/6
f 597/4/6 592/4/6 598/4/6
f 593/7/6 594/7/6 599/7/6
f 594/4/6 595/4/6 600/4/6
f 599/7/6 594/7/6 600/7/6
f 595/7/6 596/7/6 601/7/6
f 600/4/6 595/4/6 601/4/6
f 596/4/6 597/4/6 602/4/6
f 601/7/6 596/7/6 602/7/6
f 597/7/6 598/7/6 603/7/6
f 602/4/6 597/4/6 603/4/6
f 603/7/6 598/7/6 604/7/6
